HIERARCHY
ROOT Hips
{
	OFFSET 0.00000 0.00000 0.00000
	CHANNELS 6 Xposition Yposition Zposition Zrotation Yrotation Xrotation 
	JOINT LHipJoint
	{
		OFFSET 0 0 0
		CHANNELS 3 Zrotation Yrotation Xrotation
		JOINT LeftUpLeg
		{
			OFFSET 1.53139 -1.83434 0.76626
			CHANNELS 3 Zrotation Yrotation Xrotation
			JOINT LeftLeg
			{
				OFFSET 2.56112 -7.03663 0.00000
				CHANNELS 3 Zrotation Yrotation Xrotation
				JOINT LeftFoot
				{
					OFFSET 2.59983 -7.14299 0.00000
					CHANNELS 3 Zrotation Yrotation Xrotation
					JOINT LeftToeBase
					{
						OFFSET 0.13742 -0.37757 2.00054
						CHANNELS 3 Zrotation Yrotation Xrotation
						End Site
						{
							OFFSET 0.00000 -0.00000 1.02897
						}
					}
				}
			}
		}
	}
	JOINT RHipJoint
	{
		OFFSET 0 0 0
		CHANNELS 3 Zrotation Yrotation Xrotation
		JOINT RightUpLeg
		{
			OFFSET -1.40122 -1.83435 0.76627
			CHANNELS 3 Zrotation Yrotation Xrotation
			JOINT RightLeg
			{
				OFFSET -2.54052 -6.98003 0.00000
				CHANNELS 3 Zrotation Yrotation Xrotation
				JOINT RightFoot
				{
					OFFSET -2.63179 -7.23079 0.00000
					CHANNELS 3 Zrotation Yrotation Xrotation
					JOINT RightToeBase
					{
						OFFSET -0.24131 -0.66299 2.03908
						CHANNELS 3 Zrotation Yrotation Xrotation
						End Site
						{
							OFFSET -0.00000 -0.00000 1.07391
						}
					}
				}
			}
		}
	}
	JOINT LowerBack
	{
		OFFSET 0 0 0
		CHANNELS 3 Zrotation Yrotation Xrotation
		JOINT Spine
		{
			OFFSET 0.01174 2.10302 -0.29778
			CHANNELS 3 Zrotation Yrotation Xrotation
			JOINT Spine1
			{
				OFFSET 0.00772 2.13227 -0.01247
				CHANNELS 3 Zrotation Yrotation Xrotation
				JOINT Neck
				{
					OFFSET 0 0 0
					CHANNELS 3 Zrotation Yrotation Xrotation
					JOINT Neck1
					{
						OFFSET -0.09219 1.60848 0.31481
						CHANNELS 3 Zrotation Yrotation Xrotation
						JOINT Head
						{
							OFFSET 0.13974 1.65456 -0.31134
							CHANNELS 3 Zrotation Yrotation Xrotation
							End Site
							{
								OFFSET 0.04742 1.69515 -0.14578
							}
						}
					}
				}
				JOINT LeftShoulder
				{
					OFFSET 0 0 0
					CHANNELS 3 Zrotation Yrotation Xrotation
					JOINT LeftArm
					{
						OFFSET 3.24909 1.02882 -0.23993
						CHANNELS 3 Zrotation Yrotation Xrotation
						JOINT LeftForeArm
						{
							OFFSET 5.32955 -0.00000 -0.00000
							CHANNELS 3 Zrotation Yrotation Xrotation
							JOINT LeftHand
							{
								OFFSET 3.69232 -0.00000 -0.00000
								CHANNELS 3 Zrotation Yrotation Xrotation
								JOINT LeftFingerBase
								{
									OFFSET 0 0 0
									CHANNELS 3 Zrotation Yrotation Xrotation
									JOINT LeftHandIndex1
									{
										OFFSET 0.53660 -0.00000 -0.00000
										CHANNELS 3 Zrotation Yrotation Xrotation
										End Site
										{
											OFFSET 0.43262 -0.00000 -0.00000
										}
									}
								}
								JOINT LThumb
								{
									OFFSET 0 0 0
									CHANNELS 3 Zrotation Yrotation Xrotation
									End Site
									{
										OFFSET 0.43922 -0.00000 0.43922
									}
								}
							}
						}
					}
				}
				JOINT RightShoulder
				{
					OFFSET 0 0 0
					CHANNELS 3 Zrotation Yrotation Xrotation
					JOINT RightArm
					{
						OFFSET -3.21387 0.93002 -0.34594
						CHANNELS 3 Zrotation Yrotation Xrotation
						JOINT RightForeArm
						{
							OFFSET -5.23431 -0.00000 0.00000
							CHANNELS 3 Zrotation Yrotation Xrotation
							JOINT RightHand
							{
								OFFSET -3.55301 -0.00000 -0.00000
								CHANNELS 3 Zrotation Yrotation Xrotation
								JOINT RightFingerBase
								{
									OFFSET 0 0 0
									CHANNELS 3 Zrotation Yrotation Xrotation
									JOINT RightHandIndex1
									{
										OFFSET -0.77252 -0.00000 -0.00000
										CHANNELS 3 Zrotation Yrotation Xrotation
										End Site
										{
											OFFSET -0.62283 -0.00000 -0.00000
										}
									}
								}
								JOINT RThumb
								{
									OFFSET 0 0 0
									CHANNELS 3 Zrotation Yrotation Xrotation
									End Site
									{
										OFFSET -0.63234 -0.00000 0.63234
									}
								}
							}
						}
					}
				}
			}
		}
	}
}
MOTION
Frames: 13
Frame Time: 0.153846
0.00 0.00 0.00 0 0 0 0 0 0 -21 0 0 0 0 0 0 0 0 0 0 0 0 0 0 21 0 0 0 0 0 0 0 0 0 0 0 0 0 0 0 0 0 0 0 0 0 0 -16 0 0 21 0 0 11 0 0 0 -8 0 0 0 0 0 0 0 0 0 0 0 0 0 0 0 0 0 0 0 0 8 0 0 0 0 0 0 0 0 0 0 0 0 0 0 0 0 0
0.00 0.00 0.00 0.2599 -48.3117 1.1855 0.0000 0.0000 0.0000 -20.2691 -6.6164 -9.0580 3.8756 11.9931 35.7074 0.7888 -0.6845 -16.5655 0.1056 -2.0957 -5.7703 0.0000 0.0000 0.0000 25.8563 5.8959 -7.4273 -3.1042 -10.8618 31.8152 -1.5413 1.5510 -23.0311 -0.2887 -3.4556 9.5498 -0.3809 0.3699 8.3154 0.6986 0.4896 -0.7179 0.8788 0.2621 -5.4258 -9.5574 -4.0214 -22.5356 5.1322 -3.9917 27.7059 2.9040 -2.1169 13.4240 -0.0000 -0.0000 0.0000 -88.7154 6.6473 22.0226 16.3490 -25.9916 -3.7976 -0.0000 -0.0000 12.0260 17.5015 25.7778 7.8083 -7.1250 0.0000 -0.0000 -13.4117 56.3304 -3.7740 -0.0000 -0.0000 0.0000 90.9286 -3.5769 16.1761 -14.9950 24.1392 -3.2239 0.0000 0.0000 13.1840 -11.2704 9.0062 -1.7868 7.1250 -0.0000 -0.0000 11.2174 -20.8727 6.6103
0.00 0.00 0.00 -3.6806 -49.9222 5.0487 0.0000 0.0000 0.0000 -12.3526 -14.1655 -29.1366 1.6783 8.1612 23.2049 0.2597 -0.2757 -9.5319 0.2395 -3.1496 -8.6954 0.0000 0.0000 0.0000 29.5263 0.0743 4.5088 -0.8895 -6.0117 16.8184 -1.2868 3.2379 -20.6215 -0.1294 -2.3191 6.3883 3.9533 2.0593 12.0435 0.9657 3.2787 1.1899 -1.7448 1.5204 -5.3337 -9.5697 -4.3630 -21.7670 6.8727 -4.9016 24.5159 3.3668 -2.2329 12.1107 -0.0000 -0.0000 0.0000 -89.2501 8.5888 20.6713 16.6049 -26.3340 -3.9105 -0.0000 -0.0000 11.9716 17.0774 25.2473 7.4651 -7.1250 0.0000 -0.0000 -13.5752 55.7199 -3.6190 -0.0000 -0.0000 0.0000 88.9870 -2.7497 16.9536 -15.5126 24.8553 -3.4385 0.0000 0.0000 11.2844 -10.9312 8.5674 -1.6480 7.1250 -0.0000 -0.0000 11.4839 -21.3232 6.6541
0.00 0.00 0.00 -1.4807 -54.1260 5.4829 0.0000 0.0000 0.0000 -15.1043 -15.2031 -25.8605 1.1434 6.7902 19.0953 -0.0019 0.7952 -0.4510 0.0082 -0.5837 -1.6040 0.0000 0.0000 0.0000 23.7755 -1.6244 17.2050 -0.7776 -5.6302 15.7152 -0.1251 5.3000 -6.8164 -0.0819 1.8455 -5.0789 2.0166 3.1980 10.0216 0.3211 4.5005 -0.1490 -1.4521 2.1571 -5.6408 -10.1024 -4.1563 -21.2566 6.7885 -4.5213 25.5704 3.5158 -2.1564 12.3993 0.0000 -0.0000 0.0000 -90.0701 11.3152 13.1107 13.8718 -22.5512 -2.7788 -0.0000 -0.0000 14.2537 16.4219 25.3659 7.1962 -7.1250 0.0000 -0.0000 -14.3079 55.7052 -3.8149 0.0000 -0.0000 0.0000 91.0443 -5.7044 13.4509 -15.2434 24.4840 -3.3262 0.0000 0.0000 12.7856 -11.2109 8.7108 -1.7193 7.1250 -0.0000 -0.0000 11.2760 -21.1700 6.5688
0.00 0.00 0.00 0.2092 -54.3197 3.3936 0.0000 0.0000 0.0000 -18.5065 -11.3620 -23.2605 1.4234 7.5446 21.3393 -0.0006 -0.5451 -0.1386 0.0239 0.9985 2.7446 0.0000 0.0000 0.0000 21.1138 -0.7103 13.2163 -2.3513 -9.5624 27.5709 0.0250 5.4869 7.0167 -0.0005 -0.1412 0.3878 1.4338 3.1535 9.4848 0.0287 4.3487 -0.0948 -1.3742 2.1022 -5.3070 -9.5939 -4.0906 -21.6071 6.0885 -4.3849 26.0414 3.1897 -2.1396 12.6117 0.0000 -0.0000 0.0000 -89.9232 11.0271 12.9229 13.2356 -21.6314 -2.5395 -0.0000 -0.0000 16.9126 16.4044 24.2649 6.8984 -7.1250 0.0000 -0.0000 -13.7733 54.6177 -3.3013 0.0000 -0.0000 0.0000 91.3578 -7.7869 12.5927 -16.4597 26.1401 -3.8463 0.0000 0.0000 10.4265 -10.8500 8.6873 -1.6582 7.1250 -0.0000 -0.0000 11.5349 -21.2066 6.7160
0.00 0.00 0.00 5.4291 -54.5166 -1.8339 0.0000 0.0000 0.0000 -23.7292 -9.9997 -18.1647 1.2461 7.0778 19.9460 -0.0015 -1.4455 -0.8314 0.0574 1.5458 4.2520 0.0000 0.0000 0.0000 16.4328 1.6988 6.4103 -5.4297 -13.8519 42.6474 -0.8674 3.7254 19.3208 -0.1111 -2.1494 5.9187 -1.6191 3.0322 10.3675 -0.5985 3.7900 0.0059 -0.2960 1.8946 -5.8706 -9.2956 -3.8030 -22.3031 5.7623 -3.9324 26.5673 3.1002 -1.9518 12.9055 -0.0000 0.0000 0.0000 -89.6250 10.7973 15.3920 14.5734 -23.5484 -3.0535 -0.0000 -0.0000 13.9213 14.1432 25.3962 6.1680 -7.1250 0.0000 -0.0000 -16.6371 55.2840 -4.2873 -0.0000 0.0000 0.0000 90.3837 -8.3705 14.6850 -17.3560 27.3247 -4.2495 0.0000 0.0000 10.0627 -10.5767 8.9259 -1.6595 7.1250 -0.0000 -0.0000 11.7158 -20.9790 6.8875
0.00 0.00 0.00 9.4833 -53.7156 -6.0658 0.0000 0.0000 0.0000 -28.0201 -7.8418 -13.4646 1.1109 6.6964 18.8189 -0.0002 -2.8309 -1.9693 0.1318 2.3401 6.4466 0.0000 0.0000 0.0000 12.7969 3.8818 -3.1202 -10.1362 -17.4857 59.9426 -0.8527 0.3491 17.5823 -0.2880 -3.4512 9.5374 -4.9322 2.4446 11.3772 -0.6508 2.5392 0.2353 1.6665 1.3732 -6.3296 -9.1635 -3.3736 -21.8952 4.8861 -3.1086 25.9717 2.8692 -1.6889 12.4904 0.0000 -0.0000 0.0000 -89.3763 9.3592 17.8366 15.8603 -25.3309 -3.5860 -0.0000 -0.0000 12.1408 16.3869 25.2020 7.1373 -7.1250 0.0000 -0.0000 -14.2588 55.5372 -3.7428 0.0000 -0.0000 0.0000 89.1078 -7.8350 16.1370 -18.9063 29.3021 -4.9849 0.0000 0.0000 9.6070 -11.0002 9.1532 -1.7711 7.1250 -0.0000 -0.0000 11.4018 -20.7365 6.7591
0.00 0.00 0.00 10.0349 -51.5039 -8.1241 0.0000 0.0000 0.0000 -30.3643 -5.6585 -7.7847 1.2578 7.1096 20.0403 0.1096 -4.9128 -6.3645 0.1353 2.3706 6.5309 0.0000 0.0000 0.0000 10.9011 4.1891 -15.2429 -13.8235 -19.0596 71.6647 0.0006 1.0135 1.3417 -0.2337 -3.1110 8.5881 -4.4187 1.1586 11.5573 -1.2276 0.8730 1.3653 1.0683 0.4904 -5.1005 -9.8631 -3.6701 -21.5276 6.0009 -3.6641 25.8484 3.3220 -1.8615 12.4535 0.0000 -0.0000 0.0000 -86.2866 4.5783 21.2819 17.8983 -28.0267 -4.5014 -0.0000 -0.0000 10.3627 16.8924 25.1645 7.3579 -7.1250 0.0000 -0.0000 -13.7229 55.6011 -3.6196 0.0000 -0.0000 0.0000 90.5917 -4.7612 11.5399 -20.0153 30.6608 -5.5392 0.0000 0.0000 8.7604 -12.8249 7.8788 -1.7874 7.1250 -0.0000 -0.0000 10.1614 -21.9451 5.7159
0.00 0.00 0.00 11.3310 -49.0848 -9.1433 0.0000 0.0000 0.0000 -32.6811 -3.8799 -1.4686 1.5752 7.9186 22.4671 0.4432 -7.1160 -12.1175 0.3290 3.6867 10.1968 0.0000 0.0000 0.0000 9.6923 6.5350 -30.0182 -9.4855 -17.1102 57.7543 -0.4635 1.2632 -12.4839 -0.0603 -1.5848 4.3596 -6.4841 0.1458 11.8165 -0.9465 -0.7417 1.2230 2.7819 -0.2506 -5.2801 -9.6745 -3.5407 -21.1311 6.0696 -3.6304 26.0076 3.3266 -1.8316 12.4296 0.0000 -0.0000 0.0000 -83.4245 -1.8040 25.7725 20.7796 -31.5702 -5.9341 -0.0000 -0.0000 6.4742 17.8254 25.5375 7.8922 -7.1250 0.0000 -0.0000 -12.9521 56.1589 -3.5874 0.0000 -0.0000 0.0000 88.6980 -5.5680 15.0841 -22.4134 33.4411 -6.8123 0.0000 0.0000 5.9939 -13.2321 7.2274 -1.6944 7.1250 -0.0000 -0.0000 9.8997 -22.5885 5.4167
0.00 0.00 0.00 10.6593 -45.6820 -7.8399 0.0000 0.0000 0.0000 -31.2462 1.3805 15.9033 0.3220 3.6472 10.0862 0.0027 -8.0174 -5.6754 0.0311 -1.1380 -3.1286 0.0000 0.0000 0.0000 10.3529 11.9761 -26.7685 -2.1365 -9.1447 26.2491 -0.0727 -1.4308 -5.8313 -0.0000 -0.0434 0.1192 -6.7573 -0.6903 10.7286 -0.5514 -1.7690 1.1589 3.4835 -0.7646 -4.6207 -10.0013 -4.1074 -21.7870 6.0646 -4.2431 25.9735 3.2706 -2.1215 12.6186 0.0000 0.0000 0.0000 -83.3796 -5.4740 28.9877 21.3565 -32.2421 -6.2390 -0.0000 -0.0000 8.1385 20.7129 23.0170 8.4102 -7.1250 0.0000 -0.0000 -8.8424 54.1897 -2.0091 0.0000 0.0000 0.0000 89.1194 -5.4204 11.3878 -17.4567 27.4558 -4.2958 0.0000 0.0000 9.7587 -12.8494 7.1928 -1.6359 7.1250 -0.0000 -0.0000 10.1795 -22.6362 5.5633
0.00 0.00 0.00 6.9672 -46.5346 -5.7555 0.0000 0.0000 0.0000 -28.1014 -0.1431 14.3509 1.7555 8.3370 23.7424 -0.1086 -6.6657 5.8698 0.1553 -2.5395 -6.9992 0.0000 0.0000 0.0000 15.1500 11.6229 -23.1205 -3.1229 -10.8914 31.9143 -0.1052 0.0152 -6.1213 -0.2324 -3.1030 8.5657 -3.8888 -0.5667 10.2394 0.3983 -1.1933 0.8381 2.7767 -0.5130 -4.7821 -9.8827 -3.9685 -21.9394 5.6205 -3.9653 26.5742 3.1375 -2.0574 12.8518 0.0000 -0.0000 0.0000 -86.1121 -0.8044 26.2582 20.2696 -30.9658 -5.6694 -0.0000 -0.0000 7.4154 17.6713 24.9492 7.6538 -7.1250 0.0000 -0.0000 -12.8164 55.5436 -3.3565 0.0000 -0.0000 0.0000 89.5029 -6.1554 6.0524 -14.4792 23.4156 -3.0159 0.0000 0.0000 13.2389 -11.8369 7.8805 -1.6460 7.1250 -0.0000 -0.0000 10.8737 -21.9783 6.1223
0.00 0.00 0.00 3.8460 -44.6946 -4.1926 0.0000 0.0000 0.0000 -23.7647 -3.1829 6.4291 4.7155 13.0561 39.5788 0.9273 -7.7741 22.5963 0.3217 3.6457 10.0819 0.0000 0.0000 0.0000 19.3749 11.4128 -17.0853 -2.9498 -10.6134 30.9869 -0.1809 -2.7807 -9.5586 -0.1828 -2.7535 7.5931 -2.6470 -0.7642 10.6397 1.0697 -1.2899 0.8549 2.8015 -0.5762 -4.9919 -10.2673 -4.4819 -21.4853 6.5397 -4.8934 26.2944 3.3948 -2.3850 12.7734 -0.0000 -0.0000 0.0000 -86.6203 0.8951 26.4900 18.4224 -28.6947 -4.7503 -0.0000 -0.0000 9.4606 12.7716 25.7429 5.6228 -7.1250 0.0000 -0.0000 -18.2089 55.3485 -4.7405 -0.0000 -0.0000 0.0000 89.8830 -6.7588 4.9050 -14.1811 22.9930 -2.8985 0.0000 0.0000 13.7417 -10.8965 7.9721 -1.5294 7.1250 -0.0000 -0.0000 11.5447 -21.9178 6.5315
0.00 0.00 0.00 0.3306 -43.1376 -2.7678 0.0000 0.0000 0.0000 -18.8060 -4.5723 -6.3508 9.0422 16.8348 56.2358 -0.2071 -9.7697 9.4997 0.1059 -2.0987 -5.7786 0.0000 0.0000 0.0000 24.0498 9.1522 -10.6075 -2.8749 -10.4898 30.5779 -0.4654 -3.3885 -14.5756 -0.2845 -3.4304 9.4793 0.1443 -0.5284 11.3742 1.1330 -0.6500 1.4289 1.2029 -0.3250 -4.8716 -9.9262 -4.9592 -21.3920 6.9569 -5.7990 25.7155 3.3274 -2.6848 12.6173 0.0000 -0.0000 0.0000 -85.8806 1.6131 27.3563 16.7320 -26.5032 -3.9670 -0.0000 -0.0000 12.5381 14.4159 24.6340 6.1156 -7.1250 0.0000 -0.0000 -15.9577 54.5992 -3.8366 0.0000 -0.0000 0.0000 89.9407 -6.5606 8.7813 -15.1227 24.3167 -3.2763 0.0000 0.0000 12.1530 -11.1800 8.5224 -1.6777 7.1250 -0.0000 -0.0000 11.3086 -21.3592 6.5391
